<svg width="32" height="32" viewBox="0 0 32 32" fill="none" xmlns="http://www.w3.org/2000/svg">
<path d="M20.3875 16C20.3875 13.5625 18.4375 11.6125 16 11.6125C13.5625 11.6125 11.6125 13.5625 11.6125 16C11.6125 18.4375 13.5625 20.3875 16 20.3875C18.4375 20.3875 20.3875 18.4375 20.3875 16ZM22.6625 16C22.6625 19.7375 19.7375 22.6625 16 22.6625C12.2625 22.6625 9.3375 19.7375 9.3375 16C9.3375 12.2625 12.2625 9.3375 16 9.3375C19.7375 9.3375 22.6625 12.2625 22.6625 16ZM24.45 9.0125C24.45 9.9875 23.8 10.6375 22.825 10.6375C21.85 10.6375 21.2 9.9875 21.2 9.0125C21.2 8.0375 21.85 7.3875 22.825 7.3875C23.8 7.3875 24.45 8.2 24.45 9.0125ZM16 5.275C14.05 5.275 9.9875 5.1125 8.3625 5.7625C7.225 6.25 6.25 7.225 5.925 8.3625C5.275 9.9875 5.4375 14.05 5.4375 16C5.4375 17.95 5.275 22.0125 5.925 23.6375C6.25 24.775 7.225 25.75 8.3625 26.075C9.9875 26.725 14.2125 26.5625 16 26.5625C17.7875 26.5625 22.0125 26.725 23.6375 26.075C24.775 25.5875 25.5875 24.775 26.075 23.6375C26.725 21.85 26.5625 17.7875 26.5625 16C26.5625 14.2125 26.725 9.9875 26.075 8.3625C25.75 7.225 24.775 6.25 23.6375 5.925C22.0125 5.1125 17.95 5.275 16 5.275ZM29 16V21.3625C29 23.3125 28.35 25.2625 26.8875 26.8875C25.425 28.35 23.475 29 21.3625 29H10.6375C8.6875 29 6.7375 28.35 5.1125 26.8875C3.8125 25.425 3 23.475 3 21.3625V10.6375C3 8.525 3.8125 6.575 5.1125 5.1125C6.7375 3.8125 8.6875 3 10.6375 3H21.3625C23.3125 3 25.2625 3.65 26.8875 5.1125C28.1875 6.575 29 8.525 29 10.6375V16Z" fill="#E8E8E8"/>
</svg>
