<svg width="32" height="32" viewBox="0 0 32 32" fill="none" xmlns="http://www.w3.org/2000/svg">
<path d="M16.8231 3C9.71538 3 6 7.55 6 12.5875C6 15.025 7.29231 17.4625 9.39231 18.7625C10.0385 19.0875 9.87692 18.7625 10.3615 16.8125C10.3615 16.65 10.3615 16.4875 10.2 16.325C7.29231 12.75 9.71538 5.7625 16.5 5.7625C26.3538 5.7625 24.4154 19.4125 18.2769 19.4125C16.9846 19.575 15.8538 18.6 15.8538 17.3V16.65C16.5 14.8625 16.9846 13.2375 17.1462 11.45C17.1462 8.0375 12.1385 8.525 12.1385 13.075C12.1385 13.8875 12.3 14.7 12.6231 15.35C12.6231 15.35 11.0077 22.0125 10.6846 23.15C10.3615 25.1 10.5231 27.05 10.8462 28.8375C10.6846 29 10.8462 29 10.8462 29H11.0077C12.1385 27.375 13.1077 25.75 13.7538 23.9625C13.9154 23.15 14.7231 20.225 14.7231 20.225C15.5308 21.3625 16.9846 22.0125 18.4385 22.0125C23.4462 22.0125 27 17.625 27 12.2625C27 6.9 22.4769 3 16.8231 3Z" fill="#E8E8E8"/>
</svg>
