<svg width="32" height="32" viewBox="0 0 32 32" fill="none" xmlns="http://www.w3.org/2000/svg">
<path d="M26.0752 4.00238C25.7541 4.02584 25.439 4.10001 25.1419 4.22205H25.1379C24.8529 4.33336 23.4976 4.89485 21.4371 5.74594L14.0534 8.8085C8.75518 11.0052 3.54699 13.1684 3.54699 13.1684L3.609 13.1447C3.609 13.1447 3.24992 13.261 2.87483 13.5141C2.64258 13.6587 2.44306 13.8488 2.2887 14.0727C2.10465 14.3386 1.95662 14.7455 2.01163 15.1661C2.10165 15.8773 2.56976 16.3038 2.90584 16.5393C3.24592 16.7776 3.56999 16.889 3.56999 16.889H3.57799L8.46212 18.5094C8.68117 19.2019 9.95046 23.3116 10.2555 24.2582C10.4356 24.8236 10.6106 25.1773 10.8297 25.4472C10.9344 25.5851 11.0607 25.7003 11.2087 25.7929C11.2856 25.8384 11.3684 25.8736 11.4548 25.8973L11.4048 25.8855C11.4198 25.8895 11.4318 25.9013 11.4428 25.9052C11.4828 25.9161 11.5098 25.92 11.5608 25.9279C12.334 26.1584 12.9551 25.6855 12.9551 25.6855L12.9902 25.658L15.8738 23.0722L20.7069 26.7238L20.817 26.7701C21.8242 27.2055 22.8444 26.9632 23.3835 26.5357C23.9267 26.1052 24.1377 25.5545 24.1377 25.5545L24.1727 25.4659L27.9076 6.62265C28.0136 6.1577 28.0406 5.7223 27.9236 5.29971C27.8035 4.87172 27.5247 4.50368 27.1424 4.26835C26.8218 4.07626 26.4499 3.98359 26.0752 4.00238ZM25.9741 6.02176C25.9701 6.08382 25.9821 6.07692 25.9541 6.19611V6.20695L22.2543 24.8542C22.2383 24.8808 22.2113 24.9389 22.1373 24.997C22.0592 25.0581 21.9972 25.0965 21.6721 24.9694L15.7608 20.5061L12.19 23.7115L12.9401 18.993L22.5984 10.1275C22.9965 9.76302 22.8634 9.68618 22.8634 9.68618C22.8914 9.23897 22.2623 9.55517 22.2623 9.55517L10.0835 16.9855L10.0795 16.9658L4.24215 15.0301V15.0262L4.22714 15.0232L4.25715 15.0114L4.28916 14.9957L4.32016 14.9848C4.32016 14.9848 9.53236 12.8216 14.8306 10.6249C17.4832 9.52464 20.1558 8.41644 22.2113 7.56141C23.4303 7.05607 24.6506 6.55369 25.8721 6.05427C25.9541 6.02274 25.9151 6.02176 25.9741 6.02176Z" fill="#E8E8E8"/>
</svg>
